<svg width="17" height="20" viewBox="0 0 17 20" fill="none" xmlns="http://www.w3.org/2000/svg">
<path d="M16.0792 15.9708C15.3889 15.4147 14.6984 14.8587 13.982 14.2817C13.4646 15.1199 12.9535 15.948 12.4266 16.8017C11.872 16.2807 11.3452 15.7858 10.7935 15.2677C9.92437 16.677 9.06241 18.0745 8.1833 19.5C7.30862 18.0813 6.44873 16.6866 5.57452 15.2684C5.02823 15.7803 4.4921 16.2828 3.93968 16.8005C3.41862 15.9563 2.90915 15.1307 2.38536 14.2821C1.6752 14.8538 0.975304 15.4173 0.236328 16.0122C0.256104 15.9452 0.259495 15.9212 0.269854 15.9009C1.32035 13.8325 1.75223 11.6272 1.74112 9.32027C1.73688 8.42553 1.74451 7.53032 1.77408 6.63615C1.80101 5.81901 2.22084 4.56115 2.60864 4.02257C2.93994 4.41028 3.27557 4.79375 3.59557 5.18994C3.63324 5.23655 3.60706 5.36416 3.57193 5.43526C3.33735 5.90961 3.22368 6.4042 3.34187 6.92668C3.54688 7.83253 4.38851 8.49211 5.3875 8.5488C5.48657 8.55446 5.58573 8.55822 5.68979 8.56302C5.67199 8.86325 5.66446 9.14275 5.63206 9.41934C5.62453 9.48394 5.54269 9.55636 5.47724 9.59488C4.92134 9.92241 4.3612 10.2428 3.80266 10.5658C3.73617 10.6042 3.67148 10.6456 3.5806 10.701C3.65076 10.7465 3.70293 10.7843 3.75859 10.8157C4.03593 10.9727 4.30291 11.1546 4.59418 11.2792C5.59157 11.7059 6.16621 12.503 6.59216 13.4548C7.16576 14.7366 7.54246 16.0828 7.93544 17.4245C8.00918 17.6763 8.08574 17.9272 8.20788 18.1798C8.36572 17.6416 8.52157 17.1028 8.68176 16.5654C9.04791 15.3365 9.41895 14.1099 10.0195 12.9677C10.372 12.2975 10.8294 11.7429 11.5355 11.4104C11.9561 11.2124 12.3509 10.9598 12.7924 10.712C12.706 10.656 12.6417 10.6104 12.5737 10.5712C12.0152 10.2482 11.4573 9.92411 10.8959 9.60618C10.7842 9.5429 10.7287 9.47443 10.727 9.33609C10.7241 9.08861 10.692 8.8414 10.6699 8.56783C11.5152 8.54824 12.2651 8.29746 12.7555 7.56131C13.2653 6.79578 13.1115 6.02271 12.7119 5.27262C13.0604 4.85223 13.402 4.44023 13.7633 4.00439C13.8266 4.11834 13.8937 4.2258 13.9482 4.33937C14.3927 5.26433 14.6277 6.2346 14.6222 7.26692C14.6168 8.29397 14.6198 9.32206 14.6598 10.3481C14.7339 12.2523 15.1931 14.0649 16.0339 15.778C16.0604 15.8319 16.085 15.8867 16.0792 15.9708Z" fill="#FFFFFF"/>
<path d="M14.3048 1.5548C14.2571 1.67205 14.2197 1.77959 14.1707 1.88149C13.7081 2.84469 13.0115 3.62717 12.2398 4.34665C11.4059 5.12405 10.4968 5.79965 9.48186 6.32805C9.33599 6.40405 9.23428 6.40895 9.0853 6.31929C8.47892 5.95428 7.86557 5.96596 7.25279 6.32542C7.17462 6.37128 7.03591 6.39774 6.9649 6.35951C5.0853 5.34781 3.47664 4.03221 2.35391 2.18435C2.23054 1.9814 2.1439 1.75614 2.05566 1.57316C2.38395 1.815 2.70932 2.09272 3.07085 2.30997C3.424 2.52224 3.52768 2.48212 3.82291 2.20488C6.26115 -0.084563 10.1797 -0.0679887 12.5846 2.25347C12.7837 2.44558 12.9728 2.48419 13.1836 2.36205C13.4703 2.19602 13.7382 1.99685 14.0098 1.80568C14.1089 1.73599 14.1955 1.64869 14.3048 1.5548Z" fill="#FFFFFF"/>
<path d="M10.6879 10.6908C9.11027 11.6097 8.70128 13.2019 8.18484 14.7886C8.0593 14.4059 7.95317 14.0748 7.84223 13.7454C7.56292 12.9162 7.24141 12.1048 6.6274 11.4583C6.35741 11.174 6.03835 10.9362 5.72607 10.6638C5.94041 10.5399 6.1668 10.3962 6.40497 10.2756C6.61196 10.1707 6.67863 10.0201 6.68871 9.79087C6.70839 9.34251 6.73702 8.8901 6.81905 8.45013C6.90889 7.96834 7.1883 7.58185 7.5875 7.29105C7.96466 7.01625 8.40209 7.01625 8.77916 7.29114C9.37273 7.72396 9.60195 8.34409 9.66034 9.04426C9.68162 9.29947 9.68021 9.55732 9.6755 9.81366C9.67173 10.0135 9.74255 10.1545 9.9212 10.2511C10.1667 10.3839 10.4059 10.5282 10.6879 10.6908Z" fill="#FFFFFF"/>
<path d="M6.47079 7.27627C5.97327 7.67152 4.88039 7.59034 4.48487 6.99065C4.2694 6.66415 4.31253 6.33247 4.46584 6.01172C5.1534 6.44539 5.81553 6.86304 6.47079 7.27627Z" fill="#FFFFFF"/>
<path d="M11.3743 7.38758C10.8736 7.59674 10.2514 7.54645 9.88672 7.28088C10.5462 6.86501 11.214 6.44397 11.8956 6.01416C12.1818 6.60076 11.9844 7.13265 11.3743 7.38758Z" fill="#FFFFFF"/>
</svg>
